<svg xmlns="http://www.w3.org/2000/svg" width="1024" height="1024" viewBox="0 0 420 420">
  <rect fill="#BF805B" x="0" y="0" width="420" height="420"/>
  <g transform="translate(54.994364, 82.008474)" fill-rule="nonzero">
    <g transform="translate(214.889391, 154.903429) rotate(-409.000000) translate(-214.889391, -154.903429) translate(128.560244, 98.613426)">
      <path d="M109.931102,2.93320923e-13 C123.693199,2.18917623 136.350457,6.32833783 146.830659,12.1676427 C164.023682,21.74453 178.827928,43.4806252 170.05081,55.262084 C162.527041,65.360408 148.208436,66.6722917 132.502042,66.7610851 L132.502042,66.7610851 L130.531905,66.7663611 C114.482143,66.7353219 99.2476513,60.6634001 85.2538759,48.7169672 L85.2538759,48.7169672 L84.8115306,48.3426955 C76.6150728,41.4693048 66.3950567,36.2884728 56.8006655,33.4761645 C61.7257919,31.4362744 66.6498365,29.1667753 71.547971,26.6710511 C84.2022974,20.2233498 97.4143131,10.9789297 109.383441,0.483630573 Z" fill="#441D06"/>
      <path d="M127.643299,78.2672238 C110.618677,78.2672238 93.0892057,71.0004587 78.6621905,58.8529147 L78.1770667,58.4416017 C65.167622,47.3358963 56.014957,44.0902019 42.0922962,44.018667 L41.6157995,44.0174511 C40.9611103,44.0174511 -1.07263569,41.8287098 0.020974086,63.2437028 C1.43353033,90.9007131 39.2799967,112.580006 86.7299259,112.580006 C118.611835,112.580006 161.344753,96.8349752 164.724515,82.0821175 C167.763735,68.8134075 140.932734,78.2672238 127.643299,78.2672238 Z" fill="#5B2B0E"/>
    </g>
    <g transform="translate(99.036752, 126.267124) rotate(-76.000000) translate(-99.036752, -126.267124) translate(-12.586286, 52.029247)">
      <path d="M189.851107,18.1327824 C168.949231,6.44099762 141.349981,-4.54747351e-13 112.141242,-4.54747351e-13 C70.1079025,-4.54747351e-13 -3.23887365,22.0003627 12.8512423,45.6788658 C17.6136016,52.6871677 34.3280387,44.1993622 50.8484493,42.8407333 C67.1912211,41.4971117 92.0417583,50.2577362 109.660769,65.0907836 L110.232718,65.5766171 C128.326581,81.0840059 148.024682,88.9658275 168.776922,89.0061189 L171.324296,88.9992702 C191.632564,88.8840095 210.146428,87.1810835 219.874614,74.0726822 C231.223372,58.7794424 212.081576,30.5643188 189.851107,18.1327824 Z" fill="#893F13"/>
      <path d="M165.041972,103.935123 C143.029244,103.935123 120.36375,94.5023032 101.709711,78.7338566 L101.082449,78.1999408 C84.2613202,63.7838808 72.4269826,59.5707199 54.4250709,59.4778621 L53.8089637,59.4762837 C52.9624547,59.4762837 -1.38691112,56.6351292 0.0271193596,84.4334373 C1.85354558,120.334364 50.7887856,148.475754 112.141242,148.475754 C153.364347,148.475754 208.617738,128.037493 212.987749,108.887149 C216.917441,91.6633425 182.225127,103.935123 165.041972,103.935123 Z" fill="#6D310E"/>
    </g>
  </g>
</svg>
