<?xml version="1.0" encoding="UTF-8" standalone="no"?>
<svg xmlns="http://www.w3.org/2000/svg" width="200" height="80" viewBox="0 0 200 80" version="1.1">
  <title>一包豆子 一段风味 一页日常</title>
  <desc>Vectorized handwritten slogan converted from provided image, sized for a 200 by 80 canvas.</desc>
  <path d="M 164.75,42.47 L164.75,42.73 L164.88,42.86 L165.92,43.25 L166.96,44.03 L167.35,44.16 L169.30,45.59 L169.56,45.46 L169.56,45.07 L168.52,44.55 L165.40,42.34 L164.88,42.34 Z" fill="#888480" fill-rule="evenodd"/>
  <path d="M 47.73,42.34 L47.47,42.21 L47.34,42.34 L44.48,42.34 L44.35,42.47 L42.92,42.47 L42.79,42.60 L42.01,42.60 L41.36,42.86 L40.84,42.86 L39.93,43.25 L37.85,43.64 L36.55,44.16 L36.16,44.16 L35.77,44.42 L35.77,44.68 L35.90,44.81 L36.29,44.81 L36.94,44.42 L37.20,44.42 L38.50,43.90 L39.54,43.77 L39.67,43.64 L40.71,43.51 L40.84,43.38 L41.88,43.25 L42.01,43.12 L42.53,43.12 L42.66,42.99 L43.31,42.99 L43.44,42.86 L44.48,42.86 L44.61,42.73 L47.60,42.73 L47.73,42.60 Z" fill="#888480" fill-rule="evenodd"/>
  <path d="M 129.51,40.91 L129.51,41.17 L130.03,41.43 L130.42,41.43 L131.72,41.95 L132.11,41.95 L132.50,42.21 L133.02,42.21 L133.15,42.08 L133.15,41.95 L132.76,41.69 L132.50,41.69 L130.03,40.78 L129.64,40.78 Z" fill="#888480" fill-rule="evenodd"/>
  <path d="M 126.78,40.78 L126.39,41.04 L125.61,42.21 L123.92,43.90 L123.92,44.03 L123.40,44.55 L123.53,44.81 L123.79,44.81 L124.18,44.42 L124.18,44.29 L125.09,43.38 L125.87,42.34 L127.04,41.17 Z" fill="#888480" fill-rule="evenodd"/>
  <path d="M 40.71,40.65 L40.58,40.78 L40.58,41.30 L40.45,41.43 L40.45,42.08 L40.71,42.34 L40.97,42.34 L41.10,42.21 L41.10,41.95 L40.97,41.82 L41.10,40.65 Z" fill="#888480" fill-rule="evenodd"/>
  <path d="M 43.05,40.13 L42.66,40.26 L42.53,40.52 L42.66,40.78 L42.01,41.95 L42.14,42.21 L42.40,42.21 L43.05,41.17 L43.05,40.91 L43.31,40.52 Z" fill="#888480" fill-rule="evenodd"/>
  <path d="M 164.75,39.61 L164.49,39.61 L164.36,39.74 L164.23,40.26 L163.84,40.91 L163.84,41.17 L163.45,41.69 L162.15,44.29 L161.76,44.68 L161.50,44.68 L161.24,44.94 L161.24,45.20 L161.50,45.46 L161.76,45.33 L163.71,42.34 L164.88,40.00 L164.88,39.74 Z" fill="#888480" fill-rule="evenodd"/>
  <path d="M 177.88,39.09 L177.62,38.83 L176.71,39.09 L176.32,39.35 L176.06,39.35 L175.93,39.48 L175.93,39.87 L176.06,40.00 L176.32,40.00 L177.10,39.48 L177.75,39.35 Z" fill="#888480" fill-rule="evenodd"/>
  <path d="M 96.62,40.00 L96.62,40.26 L96.75,40.39 L97.01,40.39 L98.44,39.48 L98.70,39.61 L98.18,40.65 L97.53,41.43 L96.75,41.04 L96.10,41.04 L95.97,41.17 L95.97,41.43 L96.10,41.56 L96.62,41.56 L97.14,41.95 L96.23,42.73 L95.97,42.73 L95.84,42.86 L96.10,43.25 L97.14,42.60 L97.53,42.08 L97.92,42.08 L100.26,43.64 L100.65,43.77 L102.86,45.33 L103.12,45.07 L102.86,44.68 L102.21,44.42 L99.87,42.73 L99.22,42.47 L98.44,41.95 L98.05,41.56 L98.70,40.65 L99.22,39.61 L99.22,39.35 L99.35,39.22 L99.22,38.96 L98.96,38.83 L98.44,38.96 L97.92,39.35 Z" fill="#888480" fill-rule="evenodd"/>
  <path d="M 23.29,39.48 L23.29,40.52 L23.16,40.65 L22.90,43.25 L23.03,43.38 L23.16,44.03 L23.81,44.55 L25.24,44.55 L25.37,44.42 L26.02,44.29 L26.41,44.03 L27.84,43.64 L28.88,43.12 L29.14,43.12 L30.44,42.60 L31.22,42.47 L31.48,42.08 L31.35,41.69 L30.96,41.69 L30.83,41.82 L30.83,42.08 L30.44,42.34 L30.05,42.34 L29.92,42.47 L28.10,42.99 L27.71,43.25 L26.67,43.51 L25.89,43.90 L25.50,43.90 L24.85,44.16 L24.07,44.16 L23.81,44.03 L23.42,43.51 L23.42,42.08 L23.55,41.95 L23.55,41.56 L23.68,41.43 L23.94,41.69 L24.72,41.17 L25.63,40.78 L25.63,40.52 L25.37,40.13 L25.76,39.48 L25.76,38.83 L25.37,38.57 L25.11,38.57 L24.33,38.96 L24.07,39.22 L23.55,39.22 Z M 25.11,39.22 L25.24,39.35 L25.11,39.48 L25.11,39.87 L24.85,40.26 L24.85,40.52 L24.59,40.78 L24.33,40.78 L23.81,41.17 L23.68,41.04 L23.68,40.65 L23.81,40.52 L23.94,39.87 L24.59,39.35 Z" fill="#888480" fill-rule="evenodd"/>
  <path d="M 155.13,38.57 L155.00,38.44 L153.70,38.44 L153.57,38.57 L152.53,38.57 L152.40,38.70 L151.49,38.70 L151.36,38.83 L150.84,38.83 L150.71,38.96 L150.06,38.96 L149.93,39.09 L149.54,39.09 L149.41,39.22 L147.46,39.61 L146.93,39.87 L146.54,39.87 L146.41,40.00 L146.15,40.00 L145.89,40.26 L146.02,40.52 L146.54,40.52 L147.20,40.13 L147.46,40.13 L147.98,39.87 L148.37,39.87 L149.02,39.61 L149.67,39.61 L149.80,39.48 L150.45,39.48 L151.10,39.22 L152.66,39.09 L152.79,38.96 L153.96,38.96 L154.09,38.83 L155.00,38.96 L155.13,38.83 Z" fill="#888480" fill-rule="evenodd"/>
  <path d="M 85.57,38.44 L82.97,38.57 L82.84,38.70 L82.06,38.70 L81.93,38.83 L81.28,38.83 L81.15,38.96 L80.63,38.96 L79.98,39.22 L79.46,39.22 L79.33,39.35 L78.94,39.35 L78.81,39.48 L78.42,39.48 L78.29,39.61 L77.90,39.61 L77.38,39.87 L76.60,40.00 L76.47,40.13 L76.47,40.52 L76.73,40.65 L77.38,40.26 L77.64,40.26 L78.42,39.87 L78.81,39.87 L79.46,39.61 L80.76,39.48 L80.89,39.35 L81.41,39.35 L81.54,39.22 L83.36,39.09 L83.49,38.96 L84.40,38.96 L84.53,38.83 L85.44,38.96 L85.57,38.83 Z" fill="#888480" fill-rule="evenodd"/>
  <path d="M 15.88,38.44 L14.45,38.44 L14.32,38.57 L13.41,38.57 L13.28,38.70 L11.46,38.83 L10.81,39.09 L10.29,39.09 L10.16,39.22 L9.12,39.35 L8.08,39.74 L7.69,39.74 L7.56,39.87 L6.91,40.00 L6.65,40.39 L6.78,40.52 L7.17,40.52 L7.95,40.13 L8.21,40.13 L9.12,39.74 L10.03,39.61 L10.16,39.48 L11.07,39.48 L11.20,39.35 L11.85,39.35 L11.98,39.22 L12.63,39.22 L12.76,39.09 L13.54,39.09 L13.67,38.96 L14.58,38.96 L14.71,38.83 L15.75,38.96 L15.88,38.83 Z" fill="#888480" fill-rule="evenodd"/>
  <path d="M 163.19,38.05 L162.80,38.31 L162.80,38.83 L162.67,38.96 L162.67,40.00 L162.54,40.13 L162.54,41.56 L162.67,41.69 L163.06,41.69 L163.06,39.74 L163.19,39.61 L163.19,39.09 L163.32,38.96 L163.32,38.18 Z" fill="#888480" fill-rule="evenodd"/>
  <path d="M 111.18,37.66 L110.92,37.66 L110.79,37.79 L110.53,38.44 L110.14,38.96 L109.49,38.70 L109.10,38.70 L108.97,38.83 L109.23,39.22 L109.62,39.22 L109.75,39.35 L109.75,39.61 L108.97,40.39 L108.97,40.78 L109.10,40.91 L109.23,40.91 L109.75,40.39 L110.27,39.61 L111.05,40.00 L111.31,40.26 L111.57,40.26 L111.70,40.13 L111.70,39.87 L111.57,39.74 L110.92,39.48 L110.53,39.09 L111.31,38.05 L111.31,37.79 Z" fill="#888480" fill-rule="evenodd"/>
  <path d="M 165.79,37.53 L165.40,37.79 L164.88,37.92 L163.97,38.57 L163.97,38.96 L164.23,39.09 L165.14,38.31 L165.66,38.05 L166.05,38.05 L166.18,38.18 L166.18,39.35 L166.05,39.48 L166.05,40.00 L165.92,40.13 L165.79,41.04 L165.92,41.17 L166.18,41.17 L166.31,40.91 L166.31,40.26 L166.44,40.13 L166.57,38.83 L166.70,38.70 L166.70,38.05 L166.31,37.53 Z" fill="#888480" fill-rule="evenodd"/>
  <path d="M 190.49,37.40 L189.97,37.40 L189.19,37.79 L188.93,38.05 L188.80,37.79 L188.41,37.79 L188.28,37.92 L188.28,38.44 L188.15,38.57 L188.15,39.74 L188.28,39.87 L188.67,39.61 L188.67,38.57 L188.80,38.44 L189.19,38.44 L190.10,37.79 L190.23,38.05 L189.84,38.70 L189.19,38.96 L188.93,39.22 L188.93,39.48 L189.32,39.74 L189.32,40.65 L187.63,41.69 L187.50,41.56 L187.63,41.04 L187.50,40.91 L187.24,40.91 L186.98,41.17 L186.98,41.56 L186.59,42.47 L186.59,43.25 L186.85,43.38 L187.11,43.12 L187.11,42.47 L187.50,41.56 L187.76,42.08 L188.93,41.43 L189.19,41.56 L189.06,43.90 L188.93,44.03 L188.80,47.02 L189.19,47.02 L189.32,46.89 L189.19,45.98 L189.32,45.85 L189.32,44.68 L189.45,44.55 L189.45,43.38 L189.58,43.25 L189.71,41.17 L189.97,40.91 L190.23,40.91 L190.75,40.65 L191.14,40.65 L191.27,40.52 L191.40,40.65 L191.27,41.30 L190.62,42.08 L190.62,42.34 L190.88,42.47 L191.40,41.95 L191.92,41.04 L191.92,40.39 L191.66,40.13 L190.36,40.26 L189.97,40.52 L189.84,40.39 L189.84,39.74 L189.45,39.48 L190.62,38.83 L190.49,38.31 L190.75,37.79 Z M 189.19,39.61 L189.32,39.48 L189.58,39.61 L189.45,39.74 Z" fill="#888480" fill-rule="evenodd"/>
  <path d="M 185.81,36.75 L185.42,36.75 L185.29,36.88 L185.29,37.27 L184.25,39.22 L184.38,39.48 L184.77,39.48 L185.03,38.96 L185.03,38.70 L185.29,38.31 L185.29,38.05 L185.68,37.27 L185.94,37.01 Z" fill="#888480" fill-rule="evenodd"/>
  <path d="M 123.66,36.88 L123.27,36.75 L123.14,36.88 L122.88,36.88 L122.36,37.27 L122.10,36.88 L121.71,36.88 L121.58,37.14 L121.71,37.27 L121.58,37.53 L121.58,38.44 L121.45,38.57 L121.45,39.87 L121.58,40.00 L121.71,40.00 L122.10,39.48 L122.23,39.61 L122.49,39.61 L123.92,38.83 L123.92,38.57 L123.66,38.57 L123.53,38.44 L123.92,37.40 Z M 123.27,37.27 L123.40,37.40 L123.40,37.66 L123.27,37.79 L123.14,38.57 L122.10,39.35 L121.97,39.22 L121.97,38.05 L122.23,37.79 L122.49,37.79 Z" fill="#888480" fill-rule="evenodd"/>
  <path d="M 42.79,36.75 L42.66,36.88 L42.27,36.88 L41.49,37.53 L41.23,37.40 L41.36,37.27 L41.10,37.01 L40.84,37.01 L40.71,37.14 L40.58,38.70 L40.45,38.83 L40.45,39.74 L40.71,40.00 L41.23,39.61 L41.36,39.74 L41.62,39.74 L42.01,39.48 L42.53,39.48 L42.66,39.22 L43.18,39.09 L43.31,38.83 L43.05,38.57 L43.05,38.18 L43.31,37.66 L43.31,37.14 Z M 42.53,37.27 L42.66,37.40 L42.66,38.05 L42.40,38.44 L42.40,38.70 L41.36,39.22 L41.10,39.61 L40.97,39.48 L41.10,38.18 L41.23,38.05 L41.36,38.18 L41.62,38.05 L41.88,37.66 Z" fill="#888480" fill-rule="evenodd"/>
  <path d="M 178.14,36.49 L177.36,36.62 L176.58,37.14 L175.54,38.31 L175.41,38.18 L175.41,37.01 L175.15,36.88 L174.89,37.14 L174.89,37.53 L175.02,37.66 L174.89,37.79 L174.89,39.35 L174.76,39.48 L174.76,40.78 L174.63,40.91 L174.63,41.56 L174.76,41.69 L175.02,41.69 L175.15,41.56 L175.15,40.00 L175.28,39.87 L175.28,39.48 L175.54,39.22 L175.67,38.83 L177.10,37.27 L177.75,37.01 L178.01,37.01 L178.27,37.40 L178.27,38.31 L178.14,38.44 L178.14,39.35 L178.01,39.48 L177.88,40.65 L177.62,41.04 L177.23,41.04 L177.10,41.17 L176.71,41.17 L176.06,41.43 L175.93,41.56 L175.93,41.82 L176.06,41.95 L176.45,41.95 L177.23,41.56 L177.49,41.56 L177.62,41.82 L177.75,41.82 L178.14,41.43 L178.53,41.30 L178.53,40.91 L178.27,40.91 L178.14,40.78 L178.40,40.26 L178.40,39.74 L178.53,39.61 L178.53,39.09 L178.66,38.96 L178.66,38.18 L178.79,38.05 L178.79,37.27 L178.66,37.14 L178.66,36.88 Z" fill="#888480" fill-rule="evenodd"/>
  <path d="M 108.58,36.49 L108.32,36.49 L108.19,36.62 L108.06,37.40 L106.76,40.91 L106.63,41.82 L106.89,42.08 L107.15,41.82 L107.41,40.52 L107.54,40.39 L108.32,37.79 L108.71,37.01 L108.71,36.62 Z" fill="#888480" fill-rule="evenodd"/>
  <path d="M 93.50,35.84 L93.24,35.84 L92.98,36.23 L92.98,37.14 L92.85,37.27 L92.72,38.83 L92.59,38.96 L92.59,39.48 L92.46,39.61 L92.46,40.78 L92.33,40.91 L92.33,41.30 L91.16,42.08 L90.38,42.34 L90.12,42.60 L90.12,42.86 L90.25,42.99 L90.51,42.99 L91.94,42.08 L92.20,42.21 L92.07,43.51 L91.94,43.64 L91.94,44.16 L91.81,44.29 L91.81,44.68 L91.94,44.81 L92.33,44.81 L92.46,44.55 L92.33,44.29 L92.33,43.77 L92.46,43.64 L92.46,42.86 L92.59,42.73 L92.59,41.82 L93.50,41.17 L95.19,40.39 L95.19,40.13 L95.06,40.00 L93.11,40.91 L92.85,41.17 L92.72,41.04 L92.85,39.87 L93.50,39.61 L94.67,38.83 L94.41,38.57 L93.76,38.83 L93.24,39.22 L92.98,39.09 L93.11,38.83 L93.11,38.31 L93.24,38.18 L93.50,38.18 L94.02,37.79 L94.80,37.53 L94.80,37.27 L94.67,37.14 L94.28,37.14 L93.50,37.66 L93.24,37.53 L93.37,37.40 L93.37,36.88 L93.63,36.23 Z" fill="#888480" fill-rule="evenodd"/>
  <path d="M 164.88,35.71 L164.62,35.71 L164.49,35.84 L164.49,36.23 L164.10,37.01 L164.10,37.40 L164.36,37.53 L164.75,36.88 L164.75,36.62 L165.01,36.10 L165.01,35.84 Z" fill="#888480" fill-rule="evenodd"/>
  <path d="M 108.84,37.27 L108.84,37.53 L109.23,37.53 L109.75,37.01 L111.05,36.10 L112.48,35.45 L112.74,35.71 L112.74,36.75 L112.61,36.88 L112.48,38.44 L112.35,38.57 L112.35,40.91 L112.48,41.04 L112.48,41.43 L112.87,42.08 L113.65,42.86 L114.17,43.12 L114.82,43.12 L114.95,43.25 L115.08,43.12 L116.25,42.99 L116.77,42.73 L117.16,42.34 L117.16,42.08 L117.03,41.95 L116.77,41.95 L116.38,42.47 L115.47,42.60 L115.34,42.73 L114.69,42.73 L114.56,42.60 L114.17,42.60 L113.13,41.69 L112.74,40.65 L112.74,38.70 L112.87,38.57 L112.87,37.79 L113.00,37.66 L113.13,36.36 L113.26,36.23 L113.26,35.58 L113.00,35.19 L112.74,35.06 L111.83,35.19 L110.66,35.84 L110.40,36.10 L110.01,36.23 Z" fill="#888480" fill-rule="evenodd"/>
  <path d="M 97.40,34.93 L97.01,35.19 L97.01,36.10 L96.88,36.23 L96.88,36.75 L96.75,36.88 L96.75,37.40 L96.62,37.53 L96.62,38.05 L96.75,38.18 L97.14,37.92 L97.14,37.14 L97.27,37.01 L97.27,36.36 L97.40,36.23 L97.40,35.71 L97.53,35.58 L97.53,35.06 Z" fill="#888480" fill-rule="evenodd"/>
  <path d="M 98.83,34.67 L97.79,35.45 L97.79,35.84 L98.05,35.84 L98.57,35.32 L98.83,35.45 L98.83,35.84 L98.70,35.97 L98.44,37.27 L98.57,37.53 L99.22,37.66 L100.26,37.14 L100.52,37.14 L100.65,37.01 L100.65,36.62 L100.26,36.62 L99.35,37.14 L99.09,37.14 L98.96,37.01 L99.48,35.06 L99.22,34.67 Z" fill="#888480" fill-rule="evenodd"/>
  <path d="M 58.53,34.54 L57.88,34.54 L57.75,34.67 L57.49,34.67 L57.10,34.93 L56.19,35.19 L55.93,35.45 L56.06,35.71 L56.45,35.71 L56.71,35.45 L57.62,35.06 L58.14,35.06 L58.27,35.19 L58.27,35.45 L57.88,36.23 L57.62,36.49 L56.84,37.92 L57.23,38.44 L57.36,39.74 L56.84,40.00 L56.45,40.00 L56.32,40.13 L54.50,40.65 L54.11,40.91 L53.20,41.17 L52.67,41.56 L52.67,41.82 L52.80,41.95 L53.07,41.95 L54.50,41.17 L55.15,41.04 L55.54,40.78 L55.80,40.78 L57.10,40.26 L57.23,40.39 L57.23,41.69 L57.10,41.82 L57.10,42.21 L56.84,42.60 L56.84,42.86 L56.32,43.64 L56.06,43.38 L55.80,43.38 L55.80,44.16 L56.06,44.42 L56.58,44.03 L57.23,42.99 L57.49,41.69 L57.62,41.56 L57.75,40.13 L57.88,40.00 L59.18,39.74 L59.31,39.61 L61.13,39.35 L61.26,39.22 L61.91,39.22 L62.04,39.09 L63.34,39.09 L63.60,38.96 L63.60,38.70 L63.47,38.57 L62.56,38.57 L62.43,38.70 L61.65,38.70 L61.52,38.83 L61.00,38.83 L60.87,38.96 L60.22,38.96 L60.09,39.09 L59.70,39.09 L59.57,39.22 L59.18,39.22 L59.05,39.35 L58.66,39.35 L58.53,39.48 L57.88,39.61 L57.75,39.48 L57.75,38.44 L57.49,37.92 L57.49,37.53 L57.75,37.27 L57.88,36.88 L58.66,35.71 L58.79,34.80 Z" fill="#888480" fill-rule="evenodd"/>
  <path d="M 187.37,34.15 L187.11,34.41 L187.11,34.93 L187.37,35.32 L187.89,35.45 L188.15,35.19 L187.63,34.80 L187.63,34.15 Z" fill="#888480" fill-rule="evenodd"/>
  <path d="M 44.61,34.28 L44.48,34.15 L44.22,34.15 L44.09,34.28 L43.70,34.28 L43.18,34.54 L42.79,34.54 L42.66,34.67 L42.27,34.67 L41.75,34.93 L41.36,34.93 L41.23,35.06 L40.58,35.19 L40.19,35.45 L39.54,35.58 L39.41,35.71 L39.41,36.10 L39.67,36.23 L41.10,35.45 L41.36,35.45 L41.88,35.19 L42.27,35.19 L42.40,35.06 L42.79,35.06 L43.31,34.80 L43.83,34.80 L43.96,34.67 L44.22,34.67 L44.35,34.80 L44.61,34.67 Z" fill="#888480" fill-rule="evenodd"/>
  <path d="M 168.65,34.02 L168.52,33.89 L167.74,33.89 L167.61,34.02 L167.09,34.02 L166.96,34.15 L166.44,34.15 L166.31,34.28 L164.88,34.54 L164.75,34.67 L162.54,35.32 L161.89,35.71 L161.24,35.84 L160.98,36.23 L161.11,36.49 L161.37,36.49 L162.80,35.71 L163.06,35.71 L163.45,35.45 L163.71,35.45 L164.23,35.19 L164.62,35.19 L165.14,34.93 L165.53,34.93 L165.66,34.80 L166.05,34.80 L166.18,34.67 L166.57,34.67 L167.22,34.41 L167.87,34.41 L168.00,34.28 L168.13,34.41 L168.52,34.41 L168.65,34.28 Z" fill="#888480" fill-rule="evenodd"/>
  <path d="M 128.21,33.63 L127.95,33.89 L127.95,35.71 L127.56,35.97 L127.30,35.97 L126.39,36.36 L126.39,36.75 L126.52,36.88 L126.78,36.88 L127.56,36.36 L127.82,36.36 L127.95,36.49 L127.69,37.14 L127.69,37.92 L127.17,38.31 L126.91,38.31 L126.26,38.70 L126.00,38.70 L125.48,38.96 L125.09,39.35 L125.35,39.74 L127.30,38.70 L127.56,38.83 L127.56,39.61 L127.30,39.87 L127.30,40.26 L127.43,40.39 L127.43,41.82 L127.30,41.95 L127.30,43.12 L127.17,43.25 L127.17,44.03 L127.04,44.16 L127.04,44.68 L127.30,44.94 L127.56,44.68 L127.56,42.08 L127.69,41.95 L127.82,40.39 L128.08,39.87 L127.95,38.70 L128.34,38.18 L128.60,38.18 L129.90,37.53 L130.68,37.40 L130.81,37.27 L130.81,36.88 L130.55,36.88 L129.77,37.27 L128.73,37.53 L128.34,37.79 L128.08,37.66 L128.21,37.40 L128.21,36.23 L128.99,35.84 L129.51,35.84 L129.64,35.58 L129.51,35.32 L129.25,35.32 L128.73,35.58 L128.34,35.58 L128.21,35.45 L128.34,35.32 L128.34,34.67 L128.47,34.54 L128.47,33.76 Z" fill="#888480" fill-rule="evenodd"/>
  <path d="M 28.23,35.58 L27.84,35.19 L26.67,35.32 L25.11,36.10 L24.85,36.10 L23.29,37.01 L23.16,36.75 L23.68,35.97 L23.68,35.71 L24.07,35.06 L24.07,34.80 L24.46,34.02 L24.46,33.63 L24.33,33.50 L24.07,33.50 L23.94,33.63 L23.94,34.02 L23.81,34.15 L23.68,34.80 L23.29,35.45 L23.29,35.71 L22.51,37.40 L22.51,37.79 L22.25,38.05 L21.34,39.87 L20.82,40.52 L20.69,41.17 L20.95,41.17 L21.34,40.78 L21.34,40.52 L22.25,38.83 L22.25,38.57 L22.64,38.05 L22.64,37.79 L23.03,37.40 L23.16,37.53 L23.42,37.53 L25.89,36.10 L26.15,36.10 L26.54,35.84 L27.32,35.71 L27.45,35.58 L27.71,35.84 L27.71,36.62 L27.58,36.75 L27.58,37.27 L27.32,37.79 L27.32,38.18 L27.19,38.31 L27.06,38.96 L26.67,39.48 L27.06,39.74 L27.32,39.48 L27.32,39.22 L27.84,37.92 L27.84,37.53 L27.97,37.40 L27.97,37.01 L28.23,36.36 Z" fill="#888480" fill-rule="evenodd"/>
  <path d="M 95.45,33.50 L95.32,33.37 L95.19,33.50 L94.93,33.50 L92.33,34.80 L92.07,35.06 L91.68,35.19 L91.55,35.45 L91.68,35.71 L92.07,35.71 L92.85,35.06 L94.80,34.02 L95.32,34.02 L95.45,33.89 Z" fill="#888480" fill-rule="evenodd"/>
  <path d="M 191.66,33.11 L191.40,33.11 L190.23,34.41 L190.36,34.67 L190.62,34.67 L191.79,33.50 L191.79,33.24 Z" fill="#888480" fill-rule="evenodd"/>
  <path d="M 193.22,35.32 L192.83,35.06 L192.57,35.06 L192.44,35.19 L191.40,35.32 L191.27,35.45 L190.75,35.45 L190.62,35.58 L190.23,35.58 L189.58,35.84 L189.45,35.71 L189.45,34.80 L189.58,34.67 L189.58,33.50 L189.71,33.37 L189.71,33.11 L189.32,32.85 L189.06,33.24 L189.19,33.37 L189.19,33.76 L189.06,33.89 L189.06,35.06 L188.93,35.19 L188.93,35.58 L189.19,35.84 L188.93,36.10 L188.02,36.36 L186.46,37.14 L186.33,37.40 L186.72,37.66 L186.98,37.40 L188.54,36.62 L188.80,36.62 L189.45,36.23 L189.71,36.23 L191.01,35.71 L191.40,35.71 L191.53,35.58 L192.57,35.58 L192.70,35.71 L192.05,36.49 L192.18,36.75 L192.44,36.75 L193.22,35.84 Z" fill="#888480" fill-rule="evenodd"/>
</svg>